<svg id="Account_Icon" data-name="Account Icon" xmlns="http://www.w3.org/2000/svg" viewBox="0 0 1080 1080"><defs><style>.cls-1{fill:#100c08;}</style></defs><path d="M540,1014.83A474.95,474.95,0,0,1,355.17,102.5a474.94,474.94,0,0,1,369.66,875A471.8,471.8,0,0,1,540,1014.83Zm0-894.66a418.37,418.37,0,1,0,163.41,33A417.26,417.26,0,0,0,540,120.17Z"/><g id="Component_9_1" data-name="Component 9 1"><g id="Group_62" data-name="Group 62"><path class="cls-1" d="M540,911.67h0A376.57,376.57,0,0,1,240.52,763.44a76.9,76.9,0,0,1-7.46-81.07c14.28-28,50-68.12,138.92-99.81,54.5-19.41,118.86-31.47,168-31.47,49.48,0,114.2,12.16,168.88,31.73,49.42,17.69,113.61,49.59,138.8,101.08,12.63,25.81,9.48,56.28-8.22,79.5A376.57,376.57,0,0,1,540,911.67Zm0-305.58c-42.59,0-101.28,11.1-149.52,28.28-55.28,19.69-94.78,46.28-108.35,73a21.58,21.58,0,0,0,2.18,22.77,321.54,321.54,0,0,0,511.41,0,21.24,21.24,0,0,0,2.55-22c-13.12-26.83-52.46-53.61-107.92-73.46C641.9,617.28,582.88,606.09,540,606.09Zm0-91.94C444.61,514.15,367,436.58,367,341.24a172.71,172.71,0,0,1,172.5-172.91H540c95.34,0,172.91,77.57,172.91,172.91S635.29,514.15,540,514.15Zm-.27-290.82a118,118,0,1,0,.27,0Z"/></g></g></svg>