<svg id="Back_Button_Voucher_Detail_Page_" data-name="Back Button (Voucher Detail Page)" xmlns="http://www.w3.org/2000/svg" viewBox="0 0 1080 1080"><defs><style>.cls-1{fill:#fbfbf0;}</style></defs><g id="Group_789" data-name="Group 789"><circle id="Ellipse_281-2" data-name="Ellipse 281-2" class="cls-1" cx="540" cy="540" r="393.15"/><path id="Icon_ionic-md-arrow-round-back" data-name="Icon ionic-md-arrow-round-back" d="M710.65,515.38H460.78l96.85-92.71a38.62,38.62,0,0,0,0-52.77,34.53,34.53,0,0,0-48.81-1.63c-.56.53-1.1,1.07-1.63,1.63L345.89,526.35a35.53,35.53,0,0,0-10.5,26.21V553a35.53,35.53,0,0,0,10.5,26.21L507.13,735.68a34.53,34.53,0,0,0,48.81,1.62q.84-.78,1.62-1.62a38.62,38.62,0,0,0,0-52.77l-96.91-92.7H710.52a36.56,36.56,0,0,0,35.74-37.37v-.15a36.16,36.16,0,0,0-35-37.29Z"/></g></svg>