<svg id="Google_Sign_In_Icon" data-name="Google Sign In Icon" xmlns="http://www.w3.org/2000/svg" viewBox="0 0 1080 1080"><defs><style>.cls-1{fill:#e94335;}.cls-2{fill:#34a753;}.cls-3{fill:#4284f3;}.cls-4{fill:#fabb05;}</style></defs><path id="Path_2231" data-name="Path 2231" class="cls-1" d="M251.28,392.7A311.91,311.91,0,0,1,446.39,224.55a320.35,320.35,0,0,1,307.2,55.71c12.76,9.83,15.86,16.59,2,29.05-24.57,22.12-47.33,46.33-70.48,70-6.51,6.66-11.4,9.07-19.66,2-94-80.58-255.32-43.35-303.86,93.76-.22.64-.93,1.08-1.43,1.62a26.22,26.22,0,0,1-23.93-5.6c-24.29-18.78-48.81-37.26-72.53-56.75A31.12,31.12,0,0,1,251.28,392.7Z"/><path id="Path_2232" data-name="Path 2232" class="cls-2" d="M360.5,603.76c35.72,106,150.57,162.89,256.53,127.17a202.74,202.74,0,0,0,44.46-21.32,26.69,26.69,0,0,1,16.63,2,602.47,602.47,0,0,1,85.82,66.06c4.23,3.69,3.07,9.12,1.67,14a282.08,282.08,0,0,1-160.8,76.18A333.16,333.16,0,0,1,257.72,702c-2.45-4.35-4.15-9.07-6.22-13.62a27.67,27.67,0,0,1,8.43-18.78c26.2-21.79,53-42.76,80.71-62.61A18.8,18.8,0,0,1,360.5,603.76Z"/><path id="Path_2233" data-name="Path 2233" class="cls-3" d="M765.62,791.81,661.49,709.68a174.69,174.69,0,0,0,61.68-86c5.07-16.64-.32-17.64-14-17.5-48.27.52-96.54-.29-144.78.52-13.44.22-17.2-3.79-16.88-17,.88-31.68.81-63.38,0-95.06-.32-13.23,4-17.21,17.2-17.21,92.92.5,185.84.23,278.77.32,7.56,0,15.7-2,17.2,10.35C875.25,603.86,855.14,708.6,765.62,791.81Z"/><path id="Path_2234" data-name="Path 2234" class="cls-4" d="M360.5,603.76l-109,84.54a318.7,318.7,0,0,1-.29-295.63l109,84A213.27,213.27,0,0,0,360.5,603.76Z"/></svg>