<svg id="Last_Visited" data-name="Last Visited" xmlns="http://www.w3.org/2000/svg" viewBox="0 0 1080 1080"><defs><style>.cls-1{fill:#100c08;}</style></defs><path id="Icon_awesome-store" data-name="Icon awesome-store" class="cls-1" d="M921.22,361.82,837.06,227.48A41.74,41.74,0,0,0,801.94,208H278a41.74,41.74,0,0,0-35.12,19.46L158.73,361.82A115.67,115.67,0,0,0,235,538.71a135.22,135.22,0,0,0,17.75,1.18A128.06,128.06,0,0,0,348.44,497a128.16,128.16,0,0,0,180.94,10.48A126.39,126.39,0,0,0,539.86,497,128.16,128.16,0,0,0,720.8,507.43,126.39,126.39,0,0,0,731.28,497,128.45,128.45,0,0,0,827,539.89a133.52,133.52,0,0,0,17.75-1.18,115.57,115.57,0,0,0,76.5-176.89Zm-94,219.67a164.09,164.09,0,0,1-38.27-4.93V706H291V576.56a171.47,171.47,0,0,1-38.27,4.93,174.87,174.87,0,0,1-23.32-1.55,162.8,162.8,0,0,1-21.28-4.67V830.48A41.46,41.46,0,0,0,249.53,872H830.76a41.46,41.46,0,0,0,41.49-41.42V575.27A132.35,132.35,0,0,1,851,579.94,180.19,180.19,0,0,1,827.2,581.49Z"/></svg>