<svg id="Rewards_Icon" data-name="Rewards Icon" xmlns="http://www.w3.org/2000/svg" viewBox="0 0 1080 1080"><defs><style>.cls-1{fill:none;}</style></defs><g id="Group_191" data-name="Group 191"><path d="M720.32,494.73H319.67A62.32,62.32,0,0,0,257.43,557V683.27a62.31,62.31,0,0,0,62.24,62.24H720.32a62.32,62.32,0,0,0,62.25-62.24V557A62.33,62.33,0,0,0,720.32,494.73ZM312,557a7.7,7.7,0,0,1,7.69-7.69H720.32A7.71,7.71,0,0,1,728,557V683.27a7.71,7.71,0,0,1-7.7,7.69H319.67a7.7,7.7,0,0,1-7.69-7.69Z"/><path d="M767.16,287.09H272.84c-35.87,0-65,31.65-65,70.56V478.73c0,38.91,29.18,70.56,65,70.56H767.16c35.87,0,65.05-31.65,65.05-70.56V357.65C832.21,318.74,803,287.09,767.16,287.09ZM262.34,357.65c0-9.16,5.54-16,10.5-16H767.16c5,0,10.5,6.84,10.5,16V478.73c0,9.16-5.55,16-10.5,16H272.84c-5,0-10.5-6.84-10.5-16Z"/><path class="cls-1" d="M447.53,157a67.8,67.8,0,0,0-67.72,67.72,43.57,43.57,0,0,0,43.52,43.52h67.72V200.49A43.57,43.57,0,0,0,447.53,157Z"/><path d="M447.53,102.42A122.41,122.41,0,0,0,325.26,224.69a98.18,98.18,0,0,0,98.07,98.07h77.51A44.81,44.81,0,0,0,545.6,278V200.49A98.18,98.18,0,0,0,447.53,102.42Zm43.52,165.79H423.33a43.57,43.57,0,0,1-43.52-43.52A67.8,67.8,0,0,1,447.53,157a43.57,43.57,0,0,1,43.52,43.52Z"/><path d="M593.33,102.58h-1.25a97.63,97.63,0,0,0-97.52,97.52v78a44.66,44.66,0,0,0,44.6,44.61h78.05a97.64,97.64,0,0,0,97.53-97.53v-1.35A121.56,121.56,0,0,0,593.33,102.58ZM549.11,200.1a43,43,0,0,1,43-43h1.25a66.93,66.93,0,0,1,66.86,66.78v1.32a43,43,0,0,1-43,43h-68.1Z"/></g><rect x="490.52" y="308.87" width="58.96" height="416.16"/><path d="M903.12,760.53a63.9,63.9,0,0,0-7.44-7.84l-.47-.41a64.37,64.37,0,0,0-82.8-.25L705.73,837.38a47.94,47.94,0,0,1-11.44,6.77,63.26,63.26,0,0,0-51.88-71.52,63.78,63.78,0,0,0-10.7-.91H436.29c-1.73,0-3.46.08-5.12.23-37.61,3.38-67.49,14.14-96.82,34.81-7.83,5.34-18.59,12.84-29,20.09l-.25.18c-10.29,7.17-20.93,14.59-28.41,19.68a4.32,4.32,0,0,1-2.45.76H207.51c-24.85.17-44.36,19.41-44.43,43.81v75.21a44.87,44.87,0,0,0,44.69,44.61h448a100.68,100.68,0,0,0,62.58-21.92L893.15,849.31a63.25,63.25,0,0,0,10-88.78ZM436.29,824.11H631.73a11.08,11.08,0,0,1,1.82.15,10.86,10.86,0,0,1,8.93,12.13c-1.44,6.06-6.92,11.15-12.05,11.15H630l-52.56.17c-23.19,0-46.2,0-63.62,0l-21.87,0c-2.7,0-4.82,0-6.28,0-4.18,0-12.88.11-20.48,7.7L446.59,874l18.59,18.53c7.64,7.62,15.9,7.67,21.93,7.7l9.84,0c8.23,0,19.63,0,32.42,0l48.26-.14c32.64,0,68.51.06,98.13.1h.31a100.14,100.14,0,0,0,62.41-21.92l106.93-85.55.47-.38a12.07,12.07,0,0,1,15.28-.23,10.54,10.54,0,0,1,1,1.1,10.83,10.83,0,0,1-1.72,15.19L685.67,948.26a48.09,48.09,0,0,1-29.92,10.46H215.47V899.85h58.77A56.55,56.55,0,0,0,306.16,890c7.77-5.29,18.6-12.85,29.15-20.19,10.38-7.24,21.12-14.72,28.71-19.89l.33-.23c21.78-15.39,43.17-23,71.51-25.59Z"/></svg>