<svg id="Voucher_Illustration_My_Vouchers_Button_" data-name="Voucher Illustration (My Vouchers Button)" xmlns="http://www.w3.org/2000/svg" viewBox="0 0 1500 1500"><defs><style>.cls-1{fill:#c7b299;}.cls-2{fill:#fffff9;}.cls-3{fill:#fba53b;}.cls-4{fill:#231f20;}.cls-5{opacity:0.2;isolation:isolate;}.cls-6{fill:#e5e5e5;}</style></defs><rect class="cls-1" x="134.71" y="450.52" width="1309.77" height="665.94" rx="97.5"/><rect class="cls-1" x="134.22" y="450.1" width="1309.77" height="665.94" rx="97.5"/><rect class="cls-1" x="133.72" y="449.68" width="1309.77" height="665.94" rx="97.5"/><rect class="cls-1" x="133.23" y="449.27" width="1309.77" height="665.94" rx="97.5"/><rect class="cls-1" x="132.73" y="448.85" width="1309.77" height="665.94" rx="97.5"/><rect class="cls-1" x="132.24" y="448.43" width="1309.77" height="665.94" rx="97.5"/><rect class="cls-1" x="131.74" y="448.01" width="1309.77" height="665.94" rx="97.5"/><rect class="cls-1" x="131.25" y="447.59" width="1309.77" height="665.94" rx="97.5"/><rect class="cls-1" x="130.75" y="447.17" width="1309.77" height="665.94" rx="97.5"/><rect class="cls-1" x="130.26" y="446.75" width="1309.77" height="665.94" rx="97.5"/><rect class="cls-1" x="129.76" y="446.34" width="1309.77" height="665.94" rx="97.5"/><rect class="cls-1" x="129.27" y="445.92" width="1309.77" height="665.94" rx="97.5"/><rect class="cls-1" x="128.77" y="445.5" width="1309.77" height="665.94" rx="97.5"/><rect class="cls-1" x="128.28" y="445.08" width="1309.77" height="665.94" rx="97.5"/><rect class="cls-1" x="127.78" y="444.66" width="1309.77" height="665.94" rx="97.5"/><rect class="cls-1" x="127.29" y="444.24" width="1309.77" height="665.94" rx="97.5"/><rect class="cls-1" x="126.79" y="443.82" width="1309.77" height="665.94" rx="97.5"/><rect class="cls-1" x="126.3" y="443.4" width="1309.77" height="665.94" rx="97.5"/><rect class="cls-1" x="125.8" y="442.99" width="1309.77" height="665.94" rx="97.5"/><rect class="cls-1" x="125.31" y="442.57" width="1309.77" height="665.94" rx="97.5"/><rect class="cls-1" x="124.81" y="442.15" width="1309.77" height="665.94" rx="97.5"/><rect class="cls-1" x="124.32" y="441.73" width="1309.77" height="665.94" rx="97.5"/><rect class="cls-1" x="123.82" y="441.31" width="1309.77" height="665.94" rx="97.5"/><rect class="cls-1" x="123.33" y="440.89" width="1309.77" height="665.94" rx="97.5"/><rect class="cls-1" x="122.83" y="440.47" width="1309.77" height="665.94" rx="97.5"/><rect class="cls-1" x="122.34" y="440.06" width="1309.77" height="665.94" rx="97.5"/><rect class="cls-1" x="121.84" y="439.64" width="1309.77" height="665.94" rx="97.5"/><rect class="cls-1" x="121.35" y="439.22" width="1309.77" height="665.94" rx="97.5"/><rect class="cls-1" x="120.85" y="438.8" width="1309.77" height="665.94" rx="97.5"/><rect class="cls-1" x="120.36" y="438.38" width="1309.77" height="665.94" rx="97.5"/><rect class="cls-1" x="119.86" y="437.96" width="1309.77" height="665.94" rx="97.5"/><rect class="cls-1" x="119.37" y="437.54" width="1309.77" height="665.94" rx="97.5"/><rect class="cls-1" x="118.87" y="437.12" width="1309.77" height="665.94" rx="97.5"/><rect class="cls-1" x="118.38" y="436.71" width="1309.77" height="665.94" rx="97.5"/><rect class="cls-1" x="117.88" y="436.29" width="1309.77" height="665.94" rx="97.5"/><rect class="cls-1" x="117.39" y="435.87" width="1309.77" height="665.94" rx="97.5"/><rect class="cls-1" x="116.89" y="435.45" width="1309.77" height="665.94" rx="97.5"/><rect class="cls-1" x="116.4" y="435.03" width="1309.77" height="665.94" rx="97.5"/><rect class="cls-1" x="115.9" y="434.61" width="1309.77" height="665.94" rx="97.5"/><rect class="cls-1" x="115.41" y="434.19" width="1309.77" height="665.94" rx="97.5"/><rect class="cls-1" x="114.91" y="433.78" width="1309.77" height="665.94" rx="97.5"/><rect class="cls-1" x="114.42" y="433.36" width="1309.77" height="665.94" rx="97.5"/><rect class="cls-1" x="113.92" y="432.94" width="1309.77" height="665.94" rx="97.5"/><rect class="cls-1" x="113.43" y="432.52" width="1309.77" height="665.94" rx="97.5"/><rect class="cls-1" x="112.93" y="432.1" width="1309.77" height="665.94" rx="97.5"/><rect class="cls-1" x="112.44" y="431.68" width="1309.77" height="665.94" rx="97.5"/><rect class="cls-1" x="111.94" y="431.26" width="1309.77" height="665.94" rx="97.5"/><rect class="cls-1" x="111.45" y="430.84" width="1309.77" height="665.94" rx="97.5"/><rect class="cls-1" x="110.95" y="430.43" width="1309.77" height="665.94" rx="97.5"/><rect class="cls-1" x="110.46" y="430.01" width="1309.77" height="665.94" rx="97.5"/><rect class="cls-1" x="109.96" y="429.59" width="1309.77" height="665.94" rx="97.5"/><rect class="cls-1" x="109.47" y="429.17" width="1309.77" height="665.94" rx="97.5"/><rect class="cls-1" x="108.97" y="428.75" width="1309.77" height="665.94" rx="97.5"/><rect class="cls-1" x="108.48" y="428.33" width="1309.77" height="665.94" rx="97.5"/><rect class="cls-1" x="107.98" y="427.91" width="1309.77" height="665.94" rx="97.5"/><rect class="cls-1" x="107.49" y="427.5" width="1309.77" height="665.94" rx="97.5"/><rect class="cls-1" x="106.99" y="427.08" width="1309.77" height="665.94" rx="97.5"/><rect class="cls-1" x="106.5" y="426.66" width="1309.77" height="665.94" rx="97.5"/><rect class="cls-1" x="106" y="426.24" width="1309.77" height="665.94" rx="97.5"/><rect class="cls-1" x="105.51" y="425.82" width="1309.77" height="665.94" rx="97.5"/><rect class="cls-1" x="105.01" y="425.4" width="1309.77" height="665.94" rx="97.5"/><rect class="cls-1" x="104.52" y="424.98" width="1309.77" height="665.94" rx="97.5"/><rect class="cls-1" x="104.02" y="424.56" width="1309.77" height="665.94" rx="97.5"/><rect class="cls-1" x="103.53" y="424.15" width="1309.77" height="665.94" rx="97.5"/><rect class="cls-1" x="103.03" y="423.73" width="1309.77" height="665.94" rx="97.5"/><rect class="cls-1" x="102.54" y="423.31" width="1309.77" height="665.94" rx="97.5"/><rect class="cls-1" x="102.05" y="422.89" width="1309.77" height="665.94" rx="97.5"/><rect class="cls-1" x="101.55" y="422.47" width="1309.77" height="665.94" rx="97.5"/><rect class="cls-1" x="101.06" y="422.05" width="1309.77" height="665.94" rx="97.5"/><rect class="cls-1" x="100.56" y="421.63" width="1309.77" height="665.94" rx="97.5"/><rect class="cls-1" x="100.07" y="421.22" width="1309.77" height="665.94" rx="97.5"/><rect class="cls-1" x="99.57" y="420.8" width="1309.77" height="665.94" rx="97.5"/><rect class="cls-1" x="99.08" y="420.38" width="1309.77" height="665.94" rx="97.5"/><rect class="cls-1" x="98.58" y="419.96" width="1309.77" height="665.94" rx="97.5"/><rect class="cls-1" x="98.09" y="419.54" width="1309.77" height="665.94" rx="97.5"/><rect class="cls-1" x="97.59" y="419.12" width="1309.77" height="665.94" rx="97.5"/><rect class="cls-1" x="97.1" y="418.7" width="1309.77" height="665.94" rx="97.5"/><rect class="cls-1" x="96.6" y="418.28" width="1309.77" height="665.94" rx="97.5"/><rect class="cls-1" x="96.11" y="417.87" width="1309.77" height="665.94" rx="97.5"/><rect class="cls-1" x="95.61" y="417.45" width="1309.77" height="665.94" rx="97.5"/><rect class="cls-1" x="95.12" y="417.03" width="1309.77" height="665.94" rx="97.5"/><rect class="cls-2" x="95.12" y="417.03" width="1309.77" height="665.94" rx="97.5"/><path id="Path_465" data-name="Path 465" class="cls-3" d="M1295.05,663.68V929.29a13.22,13.22,0,0,1-13.2,13.2H996.06a13.21,13.21,0,0,1-13.2-13.2V663.68a13.2,13.2,0,0,1,13.2-13.2h285.79a13.2,13.2,0,0,1,13.2,13.2Z"/><path id="Path_466" data-name="Path 466" class="cls-4" d="M1159.12,943.84h-40.36a13,13,0,0,1-13.2-12.81V655.51a13,13,0,0,1,13.2-12.81h40.36a13,13,0,0,1,13.2,12.81V931A13,13,0,0,1,1159.12,943.84Z"/><path id="Path_467" data-name="Path 467" class="cls-4" d="M1130.64,567.25c20.76,18,14.19,59.56,14.19,59.56s-40.2,12.46-60.87-5.51-14.19-59.56-14.19-59.56S1109.88,549.38,1130.64,567.25Z"/><path id="Path_468" data-name="Path 468" class="cls-4" d="M1199.58,617.93c-17.91,20.83-59.49,14.39-59.49,14.39s-12.59-40.18,5.32-60.87,59.49-14.39,59.49-14.39S1217.49,597.11,1199.58,617.93Z"/><path id="Path_469" data-name="Path 469" class="cls-5" d="M1295.05,663.68v44.85l-312.22-1.31V663.81A13.19,13.19,0,0,1,996,650.61h285.8A13.2,13.2,0,0,1,1295.05,663.68Z"/><path id="Path_470" data-name="Path 470" class="cls-3" d="M1323.46,690.85a13.18,13.18,0,0,1-10.54,5.19l-348-1.48a13.2,13.2,0,0,1-13.14-13.26h0l.16-38.83a13.2,13.2,0,0,1,13.27-13.13h0l347.94,1.47a13.21,13.21,0,0,1,13.14,13.26h0l-.16,38.83a13.13,13.13,0,0,1-2.72,8Z"/><rect id="Rectangle_103" data-name="Rectangle 103" class="cls-4" x="1104.69" y="628.53" width="69.9" height="66.8" transform="translate(473.14 1798.9) rotate(-89.77)"/><rect id="Rectangle_81" data-name="Rectangle 81" class="cls-6" x="168.43" y="646.64" width="386.23" height="30.85"/><rect id="Rectangle_82" data-name="Rectangle 82" class="cls-3" x="168.43" y="759.12" width="596.42" height="30.85"/><rect id="Rectangle_83" data-name="Rectangle 83" class="cls-6" x="168.43" y="865.06" width="486.06" height="30.85"/></svg>