<svg id="Voucher_History" data-name="Voucher History" xmlns="http://www.w3.org/2000/svg" viewBox="0 0 1080 1080"><defs><style>.cls-1{fill:#100c08;}</style></defs><path id="Icon_awesome-ticket-alt" data-name="Icon awesome-ticket-alt" class="cls-1" d="M317.79,406.68H762.21V673.36H317.79ZM873.34,540A66.65,66.65,0,0,0,940,606.66h0V740a66.65,66.65,0,0,1-66.66,66.66H206.66A66.66,66.66,0,0,1,140,740V606.7a66.61,66.61,0,1,0,0-133.22V340a66.65,66.65,0,0,1,66.66-66.66H873.34A66.66,66.66,0,0,1,940,340h0V473.48A66.66,66.66,0,0,0,873.34,540ZM806.68,395.54a33.33,33.33,0,0,0-33.33-33.33H306.65a33.33,33.33,0,0,0-33.33,33.33v289a33.33,33.33,0,0,0,33.33,33.33h466.7a33.33,33.33,0,0,0,33.33-33.33h0Z"/></svg>